<mxfile host="65bd71144e">
    <diagram id="CAeKfhzRnZo3DMhak2AF" name="Page-1">
        <mxGraphModel dx="2385" dy="1147" grid="1" gridSize="10" guides="1" tooltips="1" connect="1" arrows="1" fold="1" page="1" pageScale="1" pageWidth="1200" pageHeight="1920" background="none" math="0" shadow="0">
            <root>
                <mxCell id="0"/>
                <mxCell id="1" parent="0"/>
                <mxCell id="307" value="" style="shape=rect;fillColor=#333333;strokeColor=none;labelBackgroundColor=default;fontSize=16;fontColor=#000000;" parent="1" vertex="1">
                    <mxGeometry x="79.74000000000001" y="2700" width="1001.75" height="712" as="geometry"/>
                </mxCell>
                <mxCell id="306" value="" style="shape=rect;fillColor=#333333;strokeColor=none;labelBackgroundColor=none;fontSize=16;fontColor=default;" parent="1" vertex="1">
                    <mxGeometry x="75.62" y="30" width="1000" height="891" as="geometry"/>
                </mxCell>
                <mxCell id="305" value="" style="shape=rect;fillColor=#333333;strokeColor=none;labelBackgroundColor=none;fontSize=16;fontColor=default;" parent="1" vertex="1">
                    <mxGeometry x="75.62" y="950" width="1000" height="962" as="geometry"/>
                </mxCell>
                <mxCell id="304" value="" style="shape=rect;fillColor=#333333;strokeColor=none;labelBackgroundColor=none;fontSize=16;fontColor=default;" parent="1" vertex="1">
                    <mxGeometry x="74.74000000000001" y="1950" width="1001.75" height="712" as="geometry"/>
                </mxCell>
                <mxCell id="c27mCl2c-5wGKa37DjmO-5" style="edgeStyle=none;html=1;labelBackgroundColor=none;fontColor=default;" parent="1" edge="1">
                    <mxGeometry relative="1" as="geometry">
                        <mxPoint x="245.12" y="300" as="targetPoint"/>
                        <mxPoint x="245.12" y="300" as="sourcePoint"/>
                    </mxGeometry>
                </mxCell>
                <mxCell id="163" value="" style="rounded=1;whiteSpace=wrap;html=1;rotation=90;labelBackgroundColor=none;fontColor=default;" parent="1" vertex="1">
                    <mxGeometry x="211.49" y="1995" width="170" height="120" as="geometry"/>
                </mxCell>
                <mxCell id="164" value="&lt;h1&gt;Game and simple data&lt;/h1&gt;&lt;p&gt;&lt;br&gt;&lt;/p&gt;" style="text;html=1;strokeColor=none;fillColor=none;spacing=5;spacingTop=-20;whiteSpace=wrap;overflow=hidden;rounded=0;labelBackgroundColor=none;fontColor=default;" parent="1" vertex="1">
                    <mxGeometry x="250.24" y="1985.62" width="92.5" height="138.75" as="geometry"/>
                </mxCell>
                <mxCell id="165" value="" style="html=1;shadow=0;dashed=0;align=center;verticalAlign=middle;shape=mxgraph.arrows2.arrow;dy=0.6;dx=40;notch=0;labelBackgroundColor=none;fontColor=default;" parent="1" vertex="1">
                    <mxGeometry x="381.49" y="2020" width="100" height="70" as="geometry"/>
                </mxCell>
                <mxCell id="168" value="" style="rounded=1;whiteSpace=wrap;html=1;rotation=90;labelBackgroundColor=none;fontColor=default;" parent="1" vertex="1">
                    <mxGeometry x="416.49" y="2055" width="685" height="495" as="geometry"/>
                </mxCell>
                <mxCell id="180" value="&lt;p&gt;&lt;font style=&quot;&quot;&gt;&lt;font style=&quot;&quot;&gt;&lt;font style=&quot;font-size: 18px;&quot;&gt;Name&amp;nbsp;&lt;/font&gt;&lt;/font&gt;&lt;/font&gt;&lt;/p&gt;&lt;p&gt;&lt;font size=&quot;3&quot; style=&quot;&quot;&gt;&lt;font style=&quot;&quot;&gt;&lt;font style=&quot;&quot;&gt;&lt;font style=&quot;&quot;&gt;&lt;span style=&quot;box-sizing: border-box; -webkit-tap-highlight-color: rgba(255, 255, 255, 0); font-family: Roboto, sans-serif;&quot;&gt;https://api.rawg.io/api&lt;/span&gt;&lt;/font&gt;&lt;span style=&quot;font-family: Roboto, sans-serif;&quot;&gt;/games/{id}.name&lt;br&gt;&lt;/span&gt;&lt;/font&gt;&lt;/font&gt;&lt;font style=&quot;&quot;&gt;&lt;br&gt;&lt;/font&gt;&lt;/font&gt;&lt;/p&gt;&lt;p&gt;&lt;font style=&quot;&quot;&gt;&lt;font size=&quot;3&quot; style=&quot;&quot;&gt;platforms&lt;/font&gt;&lt;/font&gt;&lt;/p&gt;&lt;p&gt;&lt;font style=&quot;&quot;&gt;&lt;font size=&quot;3&quot; style=&quot;&quot;&gt;&lt;span style=&quot;box-sizing: border-box; -webkit-tap-highlight-color: rgba(255, 255, 255, 0); font-family: Roboto, sans-serif;&quot;&gt;https://api.rawg.io/api&lt;/span&gt;&lt;span style=&quot;font-family: Roboto, sans-serif;&quot;&gt;/games/{id}.platforms.name&lt;/span&gt;&lt;/font&gt;&lt;/font&gt;&lt;/p&gt;&lt;p&gt;&lt;font style=&quot;&quot;&gt;&lt;font size=&quot;3&quot; style=&quot;&quot;&gt;&lt;span style=&quot;font-family: Roboto, sans-serif;&quot;&gt;&lt;strike&gt;Developers&amp;nbsp;(not in search for games)&lt;/strike&gt;&lt;/span&gt;&lt;/font&gt;&lt;/font&gt;&lt;/p&gt;&lt;p&gt;&lt;font style=&quot;&quot;&gt;&lt;strike&gt;&lt;span style=&quot;font-size: medium; box-sizing: border-box; -webkit-tap-highlight-color: rgba(255, 255, 255, 0); font-family: Roboto, sans-serif;&quot;&gt;https://api.rawg.io/api&lt;/span&gt;&lt;span style=&quot;font-size: medium; font-family: Roboto, sans-serif;&quot;&gt;/games/{id}.developers&lt;/span&gt;&lt;font size=&quot;3&quot; style=&quot;&quot;&gt;&lt;span style=&quot;font-family: Roboto, sans-serif;&quot;&gt;&lt;br&gt;&lt;/span&gt;&lt;/font&gt;&lt;/strike&gt;&lt;/font&gt;&lt;/p&gt;&lt;font style=&quot;&quot;&gt;&lt;font size=&quot;3&quot;&gt;&lt;span style=&quot;&quot;&gt;&lt;font style=&quot;&quot;&gt;&lt;font style=&quot;&quot;&gt;&lt;br&gt;release date&lt;br&gt;&lt;/font&gt;&lt;/font&gt;&lt;/span&gt;&lt;font style=&quot;&quot;&gt;&lt;span style=&quot;box-sizing: border-box; -webkit-tap-highlight-color: rgba(255, 255, 255, 0); font-family: Roboto, sans-serif;&quot;&gt;https://api.rawg.io/api&lt;/span&gt;&lt;/font&gt;&lt;span style=&quot;font-family: Roboto, sans-serif;&quot;&gt;/games/{id}.relea&lt;/span&gt;&lt;/font&gt;&lt;br&gt;&lt;/font&gt;" style="text;html=1;strokeColor=none;fillColor=none;align=center;verticalAlign=middle;whiteSpace=wrap;rounded=0;labelBackgroundColor=none;fontColor=default;" parent="1" vertex="1">
                    <mxGeometry x="511.49" y="2150" width="480" height="490" as="geometry"/>
                </mxCell>
                <mxCell id="196" value="&lt;span style=&quot;font-size: medium;&quot;&gt;(background-image)&lt;br&gt;&lt;/span&gt;&lt;font style=&quot;font-size: medium;&quot;&gt;&lt;span style=&quot;box-sizing: border-box; -webkit-tap-highlight-color: rgba(255, 255, 255, 0); font-family: Roboto, sans-serif;&quot;&gt;https://api.rawg.io/api&lt;/span&gt;&lt;/font&gt;&lt;span style=&quot;font-size: medium; font-family: Roboto, sans-serif;&quot;&gt;/games/{id}.background_image&lt;/span&gt;" style="rounded=1;whiteSpace=wrap;html=1;labelBackgroundColor=none;fontSize=18;fontColor=default;" parent="1" vertex="1">
                    <mxGeometry x="513.99" y="1960" width="490" height="285" as="geometry"/>
                </mxCell>
                <mxCell id="297" style="edgeStyle=none;html=1;exitX=1;exitY=0;exitDx=0;exitDy=0;entryX=0;entryY=1;entryDx=0;entryDy=0;fontSize=16;labelBackgroundColor=none;fontColor=default;" parent="1" source="288" target="296" edge="1">
                    <mxGeometry relative="1" as="geometry"/>
                </mxCell>
                <mxCell id="288" value="" style="rounded=1;whiteSpace=wrap;html=1;fontSize=16;labelBackgroundColor=none;fontColor=default;" parent="1" vertex="1">
                    <mxGeometry x="241.49" y="2970" width="120" height="60" as="geometry"/>
                </mxCell>
                <mxCell id="301" style="edgeStyle=none;html=1;exitX=1;exitY=0;exitDx=0;exitDy=0;entryX=0;entryY=0.5;entryDx=0;entryDy=0;fontSize=16;labelBackgroundColor=none;fontColor=default;" parent="1" source="289" target="299" edge="1">
                    <mxGeometry relative="1" as="geometry"/>
                </mxCell>
                <mxCell id="289" value="All games" style="text;html=1;strokeColor=none;fillColor=none;align=center;verticalAlign=middle;whiteSpace=wrap;rounded=0;fontSize=16;labelBackgroundColor=none;fontColor=default;" parent="1" vertex="1">
                    <mxGeometry x="241.49" y="2980" width="120" height="40" as="geometry"/>
                </mxCell>
                <mxCell id="290" value="Api URLs" style="text;html=1;strokeColor=none;fillColor=none;align=center;verticalAlign=middle;whiteSpace=wrap;rounded=0;fontSize=16;labelBackgroundColor=none;fontColor=default;" parent="1" vertex="1">
                    <mxGeometry x="536.49" y="2770" width="100" height="30" as="geometry"/>
                </mxCell>
                <mxCell id="292" value="" style="rounded=1;whiteSpace=wrap;html=1;fontSize=16;labelBackgroundColor=none;fontColor=default;" parent="1" vertex="1">
                    <mxGeometry x="241.49" y="3040" width="120" height="60" as="geometry"/>
                </mxCell>
                <mxCell id="293" value="Platforms" style="text;html=1;strokeColor=none;fillColor=none;align=center;verticalAlign=middle;whiteSpace=wrap;rounded=0;fontSize=16;labelBackgroundColor=none;fontColor=default;" parent="1" vertex="1">
                    <mxGeometry x="241.49" y="3040" width="120" height="60" as="geometry"/>
                </mxCell>
                <mxCell id="295" value="" style="rounded=1;whiteSpace=wrap;html=1;fontSize=16;labelBackgroundColor=none;fontColor=default;" parent="1" vertex="1">
                    <mxGeometry x="471.49" y="2830" width="120" height="60" as="geometry"/>
                </mxCell>
                <mxCell id="296" value="by platforms" style="text;html=1;strokeColor=none;fillColor=none;align=center;verticalAlign=middle;whiteSpace=wrap;rounded=0;fontSize=16;labelBackgroundColor=none;fontColor=default;" parent="1" vertex="1">
                    <mxGeometry x="471.49" y="2830" width="120" height="60" as="geometry"/>
                </mxCell>
                <mxCell id="299" value="" style="rounded=1;whiteSpace=wrap;html=1;fontSize=16;labelBackgroundColor=none;fontColor=default;" parent="1" vertex="1">
                    <mxGeometry x="471.49" y="2940" width="120" height="60" as="geometry"/>
                </mxCell>
                <mxCell id="300" value="by genre" style="text;html=1;strokeColor=none;fillColor=none;align=center;verticalAlign=middle;whiteSpace=wrap;rounded=0;fontSize=16;labelBackgroundColor=none;fontColor=default;" parent="1" vertex="1">
                    <mxGeometry x="471.49" y="2940" width="120" height="60" as="geometry"/>
                </mxCell>
                <mxCell id="116" value="" style="rounded=1;whiteSpace=wrap;html=1;rotation=90;labelBackgroundColor=none;fontColor=default;container=0;" parent="1" vertex="1">
                    <mxGeometry x="510.62" y="620" width="130" height="955" as="geometry"/>
                </mxCell>
                <mxCell id="117" value="" style="rounded=1;whiteSpace=wrap;html=1;rotation=90;labelBackgroundColor=none;fontColor=default;container=0;" parent="1" vertex="1">
                    <mxGeometry x="336.87" y="1146.25" width="670" height="732.5" as="geometry"/>
                </mxCell>
                <mxCell id="118" value="&lt;h1 style=&quot;&quot;&gt;Gaming Holidays&lt;/h1&gt;" style="text;html=1;strokeColor=none;fillColor=none;spacing=5;spacingTop=-20;whiteSpace=wrap;overflow=hidden;rounded=0;align=center;shadow=0;labelBackgroundColor=none;fontColor=default;container=0;" parent="1" vertex="1">
                    <mxGeometry x="295.62" y="1077.5" width="530" height="60" as="geometry"/>
                </mxCell>
                <mxCell id="136" value="&lt;h1&gt;Game and game data&lt;/h1&gt;&lt;div&gt;&lt;ul&gt;&lt;li&gt;&lt;span style=&quot;&quot;&gt;Lorem ipsum dolor sit amet, consectetur adipisicing elit, sed do eiusmod tempor incididunt ut labore et dolore magna aliqua.&lt;/span&gt;&lt;br&gt;&lt;/li&gt;&lt;li&gt;&lt;span style=&quot;&quot;&gt;Lorem ipsum dolor sit amet, consectetur adipisicing elit, sed do eiusmod tempor incididunt ut labore et dolore magna aliqua.&lt;/span&gt;&lt;/li&gt;&lt;li&gt;&lt;span style=&quot;&quot;&gt;Lorem ipsum dolor sit amet, consectetur adipisicing elit, sed do eiusmod tempor incididunt ut labore et dolore magna aliqua.&lt;/span&gt;&lt;/li&gt;&lt;li&gt;&lt;span style=&quot;&quot;&gt;Lorem ipsum dolor sit amet, consectetur adipisicing elit, sed do eiusmod tempor incididunt ut labore et dolore magna aliqua.&lt;/span&gt;&lt;/li&gt;&lt;/ul&gt;&lt;/div&gt;" style="text;html=1;strokeColor=none;fillColor=none;spacing=5;spacingTop=-20;whiteSpace=wrap;overflow=hidden;rounded=0;labelBackgroundColor=none;fontColor=default;container=0;" parent="1" vertex="1">
                    <mxGeometry x="537.5000000000001" y="1448.75" width="248.75" height="343.75" as="geometry"/>
                </mxCell>
                <mxCell id="235" style="edgeStyle=none;html=1;labelBackgroundColor=none;fontColor=default;" parent="1" edge="1">
                    <mxGeometry relative="1" as="geometry">
                        <mxPoint x="245.12" y="1287.5" as="targetPoint"/>
                        <mxPoint x="245.12" y="1287.5" as="sourcePoint"/>
                    </mxGeometry>
                </mxCell>
                <mxCell id="236" value="" style="rounded=1;whiteSpace=wrap;html=1;labelBackgroundColor=none;fontColor=default;container=0;" parent="1" vertex="1">
                    <mxGeometry x="95.62" y="1177.5" width="190.5" height="670" as="geometry"/>
                </mxCell>
                <mxCell id="238" value="&lt;font style=&quot;font-size: 16px;&quot;&gt;Browse Categories&lt;/font&gt;" style="text;html=1;strokeColor=none;fillColor=none;align=center;verticalAlign=middle;whiteSpace=wrap;rounded=0;fontSize=18;labelBackgroundColor=none;fontColor=default;container=0;" parent="1" vertex="1">
                    <mxGeometry x="120.62" y="1257.5" width="145" height="27.5" as="geometry"/>
                </mxCell>
                <mxCell id="239" value="&lt;font style=&quot;font-size: 14px;&quot;&gt;All Games&lt;/font&gt;" style="text;html=1;strokeColor=none;fillColor=none;align=center;verticalAlign=middle;whiteSpace=wrap;rounded=0;fontSize=18;labelBackgroundColor=none;fontColor=default;container=0;" parent="1" vertex="1">
                    <mxGeometry x="120.62" y="1289.38" width="145" height="27.5" as="geometry"/>
                </mxCell>
                <mxCell id="240" value="&lt;span style=&quot;font-size: 14px;&quot;&gt;Platforms&lt;/span&gt;" style="text;html=1;strokeColor=none;fillColor=none;align=center;verticalAlign=middle;whiteSpace=wrap;rounded=0;fontSize=18;labelBackgroundColor=none;fontColor=default;container=0;" parent="1" vertex="1">
                    <mxGeometry x="120.62" y="1316.88" width="145" height="27.5" as="geometry"/>
                </mxCell>
                <mxCell id="278" value="Search" style="strokeWidth=1;shadow=0;dashed=0;align=center;html=1;shape=mxgraph.mockup.forms.searchBox;strokeColor=#999999;mainText=;strokeColor2=#008cff;fontColor=default;fontSize=17;align=left;spacingLeft=3;labelBackgroundColor=none;container=0;" parent="1" vertex="1">
                    <mxGeometry x="401.2399999999999" y="1120" width="170" height="30" as="geometry"/>
                </mxCell>
                <mxCell id="279" value="Platforms" style="rounded=1;html=1;shadow=0;dashed=0;whiteSpace=wrap;fontSize=10;fillColor=#666666;align=center;strokeColor=#4D4D4D;fontColor=default;labelBackgroundColor=none;container=0;" parent="1" vertex="1">
                    <mxGeometry x="591.2399999999999" y="1117.5" width="60" height="30" as="geometry"/>
                </mxCell>
                <mxCell id="280" value="Submit" style="rounded=1;html=1;shadow=0;dashed=0;whiteSpace=wrap;fontSize=10;fillColor=#666666;align=center;strokeColor=#4D4D4D;fontColor=default;labelBackgroundColor=none;container=0;" parent="1" vertex="1">
                    <mxGeometry x="659.9899999999999" y="1117.5" width="60" height="30" as="geometry"/>
                </mxCell>
                <mxCell id="62" value="" style="rounded=1;whiteSpace=wrap;html=1;rotation=90;labelBackgroundColor=none;fontColor=default;" parent="1" vertex="1">
                    <mxGeometry x="523.12" y="-370" width="130" height="955" as="geometry"/>
                </mxCell>
                <mxCell id="64" value="" style="rounded=1;whiteSpace=wrap;html=1;rotation=90;labelBackgroundColor=none;fontColor=default;" parent="1" vertex="1">
                    <mxGeometry x="348.12" y="190" width="607.5" height="652.5" as="geometry"/>
                </mxCell>
                <mxCell id="c27mCl2c-5wGKa37DjmO-27" value="&lt;h1 style=&quot;&quot;&gt;Gaming Holidays&lt;/h1&gt;" style="text;html=1;strokeColor=none;fillColor=none;spacing=5;spacingTop=-20;whiteSpace=wrap;overflow=hidden;rounded=0;align=center;shadow=0;labelBackgroundColor=none;fontColor=default;" parent="1" vertex="1">
                    <mxGeometry x="315.62" y="87.5" width="530" height="60" as="geometry"/>
                </mxCell>
                <mxCell id="56" value="" style="html=1;shadow=0;dashed=0;shape=mxgraph.bootstrap.rrect;rSize=5;strokeColor=#DEE2E6;html=1;whiteSpace=wrap;fillColor=#ffffff;fontColor=default;fontSize=14;labelBackgroundColor=none;" parent="1" vertex="1">
                    <mxGeometry x="525.62" y="732.5" width="220" height="30" as="geometry"/>
                </mxCell>
                <mxCell id="57" value="Previous" style="strokeColor=inherit;fillColor=inherit;gradientColor=inherit;fontColor=default;html=1;shadow=0;dashed=0;shape=mxgraph.bootstrap.leftButton;rSize=5;perimeter=none;whiteSpace=wrap;resizeHeight=1;fontSize=14;labelBackgroundColor=none;" parent="56" vertex="1">
                    <mxGeometry width="70" height="30" relative="1" as="geometry"/>
                </mxCell>
                <mxCell id="58" value="1" style="strokeColor=inherit;fillColor=inherit;gradientColor=inherit;fontColor=default;html=1;shadow=0;dashed=0;perimeter=none;whiteSpace=wrap;resizeHeight=1;fontSize=14;labelBackgroundColor=none;" parent="56" vertex="1">
                    <mxGeometry width="30" height="30" relative="1" as="geometry">
                        <mxPoint x="70" as="offset"/>
                    </mxGeometry>
                </mxCell>
                <mxCell id="59" value="2" style="strokeColor=inherit;fillColor=inherit;gradientColor=inherit;fontColor=default;html=1;shadow=0;dashed=0;perimeter=none;whiteSpace=wrap;resizeHeight=1;fontSize=14;labelBackgroundColor=none;" parent="56" vertex="1">
                    <mxGeometry width="30" height="30" relative="1" as="geometry">
                        <mxPoint x="100" as="offset"/>
                    </mxGeometry>
                </mxCell>
                <mxCell id="60" value="3" style="strokeColor=inherit;fillColor=inherit;gradientColor=inherit;fontColor=default;html=1;shadow=0;dashed=0;perimeter=none;whiteSpace=wrap;resizeHeight=1;fontSize=14;labelBackgroundColor=none;" parent="56" vertex="1">
                    <mxGeometry width="30" height="30" relative="1" as="geometry">
                        <mxPoint x="130" as="offset"/>
                    </mxGeometry>
                </mxCell>
                <mxCell id="61" value="Next" style="strokeColor=inherit;fillColor=inherit;gradientColor=inherit;fontColor=default;html=1;shadow=0;dashed=0;shape=mxgraph.bootstrap.rightButton;rSize=5;perimeter=none;whiteSpace=wrap;resizeHeight=1;fontSize=14;labelBackgroundColor=none;" parent="56" vertex="1">
                    <mxGeometry x="1" width="60" height="30" relative="1" as="geometry">
                        <mxPoint x="-60" as="offset"/>
                    </mxGeometry>
                </mxCell>
                <mxCell id="66" value="" style="rounded=1;whiteSpace=wrap;html=1;rotation=90;labelBackgroundColor=none;fontColor=default;" parent="1" vertex="1">
                    <mxGeometry x="353.12" y="301.25" width="170" height="120" as="geometry"/>
                </mxCell>
                <mxCell id="67" value="" style="rounded=1;whiteSpace=wrap;html=1;rotation=90;labelBackgroundColor=none;fontColor=default;" parent="1" vertex="1">
                    <mxGeometry x="495.62" y="301.25" width="170" height="120" as="geometry"/>
                </mxCell>
                <mxCell id="68" value="" style="rounded=1;whiteSpace=wrap;html=1;rotation=90;labelBackgroundColor=none;fontColor=default;" parent="1" vertex="1">
                    <mxGeometry x="635.62" y="301.25" width="170" height="120" as="geometry"/>
                </mxCell>
                <mxCell id="69" value="" style="rounded=1;whiteSpace=wrap;html=1;rotation=90;labelBackgroundColor=none;fontColor=default;" parent="1" vertex="1">
                    <mxGeometry x="775.62" y="301.25" width="170" height="120" as="geometry"/>
                </mxCell>
                <mxCell id="70" value="" style="rounded=1;whiteSpace=wrap;html=1;rotation=90;labelBackgroundColor=none;fontColor=default;" parent="1" vertex="1">
                    <mxGeometry x="353.12" y="512.5" width="170" height="120" as="geometry"/>
                </mxCell>
                <mxCell id="98" value="" style="rounded=1;whiteSpace=wrap;html=1;rotation=90;labelBackgroundColor=none;fontColor=default;" parent="1" vertex="1">
                    <mxGeometry x="495.62" y="512.5" width="170" height="120" as="geometry"/>
                </mxCell>
                <mxCell id="99" value="" style="rounded=1;whiteSpace=wrap;html=1;rotation=90;labelBackgroundColor=none;fontColor=default;" parent="1" vertex="1">
                    <mxGeometry x="635.62" y="512.5" width="170" height="120" as="geometry"/>
                </mxCell>
                <mxCell id="100" value="" style="rounded=1;whiteSpace=wrap;html=1;rotation=90;labelBackgroundColor=none;fontColor=default;" parent="1" vertex="1">
                    <mxGeometry x="775.62" y="512.5" width="170" height="120" as="geometry"/>
                </mxCell>
                <mxCell id="155" value="&lt;h1&gt;Game and simple data&lt;/h1&gt;&lt;p&gt;&lt;br&gt;&lt;/p&gt;" style="text;html=1;strokeColor=none;fillColor=none;spacing=5;spacingTop=-20;whiteSpace=wrap;overflow=hidden;rounded=0;labelBackgroundColor=none;fontColor=default;" parent="1" vertex="1">
                    <mxGeometry x="391.87" y="291.88" width="92.5" height="138.75" as="geometry"/>
                </mxCell>
                <mxCell id="156" value="&lt;h1&gt;Game and simple data&lt;/h1&gt;&lt;p&gt;&lt;br&gt;&lt;/p&gt;" style="text;html=1;strokeColor=none;fillColor=none;spacing=5;spacingTop=-20;whiteSpace=wrap;overflow=hidden;rounded=0;labelBackgroundColor=none;fontColor=default;" parent="1" vertex="1">
                    <mxGeometry x="534.37" y="291.88" width="92.5" height="138.75" as="geometry"/>
                </mxCell>
                <mxCell id="157" value="&lt;h1&gt;Game and simple data&lt;/h1&gt;&lt;p&gt;&lt;br&gt;&lt;/p&gt;" style="text;html=1;strokeColor=none;fillColor=none;spacing=5;spacingTop=-20;whiteSpace=wrap;overflow=hidden;rounded=0;labelBackgroundColor=none;fontColor=default;" parent="1" vertex="1">
                    <mxGeometry x="674.37" y="291.88" width="92.5" height="138.75" as="geometry"/>
                </mxCell>
                <mxCell id="158" value="&lt;h1&gt;Game and simple data&lt;/h1&gt;&lt;p&gt;&lt;br&gt;&lt;/p&gt;" style="text;html=1;strokeColor=none;fillColor=none;spacing=5;spacingTop=-20;whiteSpace=wrap;overflow=hidden;rounded=0;labelBackgroundColor=none;fontColor=default;" parent="1" vertex="1">
                    <mxGeometry x="814.37" y="291.88" width="92.5" height="138.75" as="geometry"/>
                </mxCell>
                <mxCell id="159" value="&lt;h1&gt;Game and simple data&lt;/h1&gt;&lt;p&gt;&lt;br&gt;&lt;/p&gt;" style="text;html=1;strokeColor=none;fillColor=none;spacing=5;spacingTop=-20;whiteSpace=wrap;overflow=hidden;rounded=0;labelBackgroundColor=none;fontColor=default;" parent="1" vertex="1">
                    <mxGeometry x="814.37" y="503.12" width="92.5" height="138.75" as="geometry"/>
                </mxCell>
                <mxCell id="160" value="&lt;h1&gt;Game and simple data&lt;/h1&gt;&lt;p&gt;&lt;br&gt;&lt;/p&gt;" style="text;html=1;strokeColor=none;fillColor=none;spacing=5;spacingTop=-20;whiteSpace=wrap;overflow=hidden;rounded=0;labelBackgroundColor=none;fontColor=default;" parent="1" vertex="1">
                    <mxGeometry x="674.37" y="503.12" width="92.5" height="138.75" as="geometry"/>
                </mxCell>
                <mxCell id="161" value="&lt;h1&gt;Game and simple data&lt;/h1&gt;&lt;p&gt;&lt;br&gt;&lt;/p&gt;" style="text;html=1;strokeColor=none;fillColor=none;spacing=5;spacingTop=-20;whiteSpace=wrap;overflow=hidden;rounded=0;labelBackgroundColor=none;fontColor=default;" parent="1" vertex="1">
                    <mxGeometry x="534.37" y="503.12" width="92.5" height="138.75" as="geometry"/>
                </mxCell>
                <mxCell id="162" value="&lt;h1&gt;Game and simple data&lt;/h1&gt;&lt;p&gt;&lt;br&gt;&lt;/p&gt;" style="text;html=1;strokeColor=none;fillColor=none;spacing=5;spacingTop=-20;whiteSpace=wrap;overflow=hidden;rounded=0;labelBackgroundColor=none;fontColor=default;" parent="1" vertex="1">
                    <mxGeometry x="391.87" y="503.12" width="92.5" height="138.75" as="geometry"/>
                </mxCell>
                <mxCell id="186" value="" style="rounded=1;whiteSpace=wrap;html=1;labelBackgroundColor=none;fontColor=default;" parent="1" vertex="1">
                    <mxGeometry x="95.62" y="190" width="190.5" height="670" as="geometry"/>
                </mxCell>
                <mxCell id="187" value="Search" style="strokeWidth=1;shadow=0;dashed=0;align=center;html=1;shape=mxgraph.mockup.forms.searchBox;strokeColor=#999999;mainText=;strokeColor2=#008cff;fontColor=default;fontSize=17;align=left;spacingLeft=3;labelBackgroundColor=none;" parent="1" vertex="1">
                    <mxGeometry x="421.25" y="130" width="170" height="30" as="geometry"/>
                </mxCell>
                <mxCell id="199" value="&lt;font style=&quot;font-size: 16px;&quot;&gt;Browse Categories&lt;/font&gt;" style="text;html=1;strokeColor=none;fillColor=none;align=center;verticalAlign=middle;whiteSpace=wrap;rounded=0;fontSize=18;labelBackgroundColor=none;fontColor=default;" parent="1" vertex="1">
                    <mxGeometry x="120.62" y="270" width="145" height="27.5" as="geometry"/>
                </mxCell>
                <mxCell id="233" value="&lt;font style=&quot;font-size: 14px;&quot;&gt;All Games&lt;/font&gt;" style="text;html=1;strokeColor=none;fillColor=none;align=center;verticalAlign=middle;whiteSpace=wrap;rounded=0;fontSize=18;labelBackgroundColor=none;fontColor=default;" parent="1" vertex="1">
                    <mxGeometry x="120.62" y="301.88" width="145" height="27.5" as="geometry"/>
                </mxCell>
                <mxCell id="234" value="&lt;span style=&quot;font-size: 14px;&quot;&gt;Platforms&lt;/span&gt;" style="text;html=1;strokeColor=none;fillColor=none;align=center;verticalAlign=middle;whiteSpace=wrap;rounded=0;fontSize=18;labelBackgroundColor=none;fontColor=default;" parent="1" vertex="1">
                    <mxGeometry x="120.62" y="329.38" width="145" height="27.5" as="geometry"/>
                </mxCell>
                <mxCell id="241" value="Platforms" style="rounded=1;html=1;shadow=0;dashed=0;whiteSpace=wrap;fontSize=10;fillColor=#666666;align=center;strokeColor=#4D4D4D;fontColor=default;labelBackgroundColor=none;" parent="1" vertex="1">
                    <mxGeometry x="611.25" y="127.5" width="60" height="30" as="geometry"/>
                </mxCell>
                <mxCell id="277" value="Submit" style="rounded=1;html=1;shadow=0;dashed=0;whiteSpace=wrap;fontSize=10;fillColor=#666666;align=center;strokeColor=#4D4D4D;fontColor=default;labelBackgroundColor=none;" parent="1" vertex="1">
                    <mxGeometry x="680" y="127.5" width="60" height="30" as="geometry"/>
                </mxCell>
                <mxCell id="ss5K161NbFmsBChTKeLe-307" value="&lt;span style=&quot;font-size: medium;&quot;&gt;(background-image)&lt;br&gt;&lt;/span&gt;&lt;font style=&quot;font-size: medium;&quot;&gt;&lt;span style=&quot;box-sizing: border-box; -webkit-tap-highlight-color: rgba(255, 255, 255, 0); font-family: Roboto, sans-serif;&quot;&gt;https://api.rawg.io/api&lt;/span&gt;&lt;/font&gt;&lt;span style=&quot;font-size: medium; font-family: Roboto, sans-serif;&quot;&gt;/games/{id}.background_image&lt;/span&gt;" style="rounded=1;whiteSpace=wrap;html=1;labelBackgroundColor=none;fontSize=18;fontColor=default;" vertex="1" parent="1">
                    <mxGeometry x="451.87" y="1226.25" width="400" height="222.5" as="geometry"/>
                </mxCell>
            </root>
        </mxGraphModel>
    </diagram>
</mxfile>